<svg xmlns="http://www.w3.org/2000/svg"  viewBox="0 0 100 100" width="100px" height="100px"><path fill="#787ab5" d="M50,15c-19.33,0-35,15.67-35,35s15.67,35,35,35s35-15.67,35-35S69.33,15,50,15z"/><path fill="#1f212b" d="M50,86c-19.851,0-36-16.149-36-36s16.149-36,36-36s36,16.149,36,36S69.851,86,50,86z M50,16 c-18.748,0-34,15.252-34,34s15.252,34,34,34s34-15.252,34-34S68.748,16,50,16z"/><path fill="#1f212b" d="M65.5,24.227c-0.087,0-0.175-0.022-0.255-0.07c-0.638-0.377-1.299-0.735-1.967-1.065 c-0.247-0.123-0.349-0.422-0.227-0.67c0.123-0.249,0.425-0.347,0.67-0.227c0.689,0.341,1.374,0.711,2.033,1.102 c0.237,0.141,0.316,0.447,0.176,0.685C65.837,24.139,65.671,24.227,65.5,24.227z M68.5,26.25c-0.106,0-0.213-0.034-0.304-0.103 c-0.322-0.247-0.65-0.486-0.983-0.72c-0.226-0.159-0.281-0.47-0.122-0.696c0.158-0.228,0.47-0.28,0.696-0.123 c0.345,0.241,0.683,0.49,1.017,0.745c0.22,0.167,0.261,0.481,0.094,0.701C68.799,26.182,68.65,26.25,68.5,26.25z"/><path fill="#1f212b" d="M50,81c-17.094,0-31-13.907-31-31s13.906-31,31-31c3.668,0,7.259,0.635,10.672,1.886 c0.26,0.095,0.393,0.382,0.298,0.642s-0.383,0.393-0.642,0.297C57.025,20.614,53.551,20,50,20c-16.542,0-30,13.458-30,30 s13.458,30,30,30s30-13.458,30-30c0-8.439-3.585-16.535-9.836-22.213c-0.205-0.186-0.22-0.502-0.034-0.707 c0.187-0.204,0.503-0.219,0.706-0.034C77.296,32.914,81,41.28,81,50C81,67.093,67.094,81,50,81z"/><path fill="#fff" d="M50.5,48.5c-7.885-1.752-15.134-7.614-15.134-10.41c0-3.504,6.132-3.504,7.885-3.504 c4.38,0,12.25-1.085,12.25-1.085c4.38-0.876,2.628-3,0-3s-8,0-8,0s9-3,12.438-1.977c1.684,0.501,3.114,1.682,3.462,3.434 c1.1,5.543-4.9,5.543-4.9,5.543s-5.175,0.152-11.307,1.028s-3.066,3.066-0.876,4.38c3.109,1.865,13.141,6.132,13.141,6.132 s-19.711,3.942-18.835,9.199S55.5,62.5,56.5,62.5c3,0,9,0,9,2s-5.355,4.53-7,5c-6.132,1.752-9.993,1.88-18.754,1.004 c7.532-0.958,13.587-2.354,17.521-4.38c0,0-27.158,0.876-27.158-8.761C30.11,49.478,50.5,48.5,50.5,48.5z"/><path fill="#1f212b" d="M48.181,71.528c-2.35,0-5.044-0.183-8.485-0.527c-0.253-0.024-0.447-0.236-0.45-0.49 c-0.003-0.255,0.185-0.471,0.437-0.503c6.575-0.836,11.581-1.941,15.198-3.361c-5.472-0.031-18.662-0.604-23.458-5.247 c-1.204-1.166-1.814-2.523-1.814-4.036c0-6.501,12.381-8.542,18.082-9.138c-6.82-2.323-12.826-7.319-12.826-10.136 c0-2.657,2.821-4.005,8.385-4.005c4.295,0,12.103-1.069,12.181-1.08c1.882-0.377,2.253-0.936,2.235-1.118 C57.632,31.533,56.75,31,55.5,31h-8c-0.245,0-0.454-0.178-0.494-0.42c-0.039-0.242,0.103-0.477,0.335-0.555 c0.374-0.124,9.189-3.035,12.738-1.981c2.031,0.604,3.456,2.031,3.81,3.815c0.344,1.732,0.075,3.15-0.801,4.216 C61.527,37.979,58.623,38,58.5,38c-0.037,0.001-5.205,0.161-11.236,1.022c-2.88,0.411-3.151,1.052-3.176,1.176 c-0.053,0.263,0.199,0.909,2.486,2.281c3.043,1.826,12.979,6.058,13.079,6.101c0.202,0.086,0.324,0.293,0.302,0.511 c-0.022,0.219-0.185,0.396-0.399,0.439c-7.438,1.488-19.021,5.146-18.44,8.627c0.474,2.842,5.763,4.204,14.899,3.858 C56.251,62.006,56.418,62,56.5,62c4.596,0,9.5,0.193,9.5,2.5c0,2.498-6.063,5.109-7.363,5.48 C54.918,71.043,52.008,71.528,48.181,71.528z M44.107,70.379c6.046,0.412,9.377,0.034,14.256-1.359 C60.288,68.47,65,65.988,65,64.5c0-0.995-2.86-1.5-8.5-1.5c-0.076,0-0.229,0.006-0.447,0.015 c-9.841,0.384-15.349-1.241-15.924-4.693c-0.808-4.848,12.778-8.343,17.688-9.442c-2.904-1.257-9.336-4.089-11.757-5.542 c-1.599-0.96-3.2-2.106-2.952-3.336c0.198-0.98,1.474-1.605,4.015-1.969c6.09-0.87,11.311-1.03,11.363-1.032 c0.04,0,2.576-0.025,3.834-1.562c0.673-0.823,0.872-1.961,0.59-3.383c-0.281-1.415-1.446-2.556-3.115-3.052 c-1.958-0.584-5.935,0.242-8.804,0.997H55.5c1.702,0,3.061,0.769,3.162,1.788c0.058,0.582-0.264,1.643-3.064,2.202 c-0.109,0.016-7.983,1.095-12.348,1.095c-4.9,0-7.385,1.011-7.385,3.005c0,2.5,7.141,8.232,14.743,9.922 c0.245,0.055,0.411,0.281,0.39,0.531c-0.021,0.249-0.224,0.444-0.474,0.456c-0.199,0.01-19.915,1.044-19.915,8.364 c0,1.249,0.494,2.334,1.51,3.317c5.682,5.503,24.939,4.95,25.132,4.942c0.245,0.017,0.442,0.148,0.5,0.374 c0.059,0.227-0.047,0.463-0.255,0.57C54.417,68.154,50.014,69.41,44.107,70.379z"/></svg>